# xmcd
# 
# Track frame offsets:
#	150
#	4527
#	22009
#	40085
#	60539
#	78627
#	79652
#	97689
#	114817
#	133259
#	150545
#	151233
#	168627
#	170240
#	191754
#	207689
#	225949
#	229135
#
# Disc length: 3294 seconds
#
# Revision: 1
# Processed by: cddbd v1.4PL0 Copyright (c) Steve Scherf et al.
# Submitted via: Audio-CD-Archiv 2.10.446
#
DISCID=dd0cdc12
DTITLE=Wyclef Jean - Masquerade
DYEAR=1900
DGENRE=blues
TTITLE0=Message In The Streets
TTITLE1=Peace God
TTITLE2=PJ's
TTITLE3=80 Bars
TTITLE4=Masquerade
TTITLE5=1-800-Henchman Interlude
TTITLE6=You Say Keep It Gangster
TTITLE7=Party Like I Party
TTITLE8=Oh What A Night
TTITLE9=Hot 93.1/Interlude
TTITLE10=Pussycat
TTITLE11=Midnight Lovers Interlude
TTITLE12=Two Wrongs (Don't Make It Right)
TTITLE13=Instant Request
TTITLE14=Thug Like Me
TTITLE15=Daddy
TTITLE16=Knockin On Heaven's Door
TTITLE17=The Eulogy
EXTD=
EXTT0=
EXTT1=
EXTT2=
EXTT3=
EXTT4=
EXTT5=
EXTT6=
EXTT7=
EXTT8=
EXTT9=
EXTT10=
EXTT11=
EXTT12=
EXTT13=
EXTT14=
EXTT15=
EXTT16=
EXTT17=
PLAYORDER=
